<mxfile host="app.diagrams.net" agent="Mozilla/5.0 (Windows NT 10.0; Win64; x64) AppleWebKit/537.36 (KHTML, like Gecko) Chrome/135.0.0.0 Safari/537.36 Edg/135.0.0.0" version="26.2.14">
  <diagram name="Страница — 1" id="WJrSOzHTH2PLyb-KMK9L">
    <mxGraphModel dx="1367" dy="799" grid="1" gridSize="10" guides="1" tooltips="1" connect="1" arrows="1" fold="1" page="1" pageScale="1" pageWidth="827" pageHeight="1169" math="0" shadow="0">
      <root>
        <mxCell id="0" />
        <mxCell id="1" parent="0" />
        <mxCell id="LLaQkQV6UhbVfh7tmjYq-1" value="" style="rounded=0;whiteSpace=wrap;html=1;fillColor=none;movable=0;resizable=0;rotatable=0;deletable=0;editable=0;locked=1;connectable=0;" parent="1" vertex="1">
          <mxGeometry x="200" y="120" width="400" height="280" as="geometry" />
        </mxCell>
        <mxCell id="LLaQkQV6UhbVfh7tmjYq-5" value="специальность,&amp;nbsp;&lt;div&gt;подразделение&lt;/div&gt;" style="edgeStyle=orthogonalEdgeStyle;rounded=0;orthogonalLoop=1;jettySize=auto;html=1;entryX=0;entryY=0.5;entryDx=0;entryDy=0;" parent="1" source="lQ96mx58gnyNu-WJbghE-1" target="LLaQkQV6UhbVfh7tmjYq-4" edge="1">
          <mxGeometry relative="1" as="geometry" />
        </mxCell>
        <mxCell id="lQ96mx58gnyNu-WJbghE-1" value="Офицер" style="shape=umlActor;verticalLabelPosition=bottom;verticalAlign=top;html=1;outlineConnect=0;" parent="1" vertex="1">
          <mxGeometry x="50" y="200" width="30" height="60" as="geometry" />
        </mxCell>
        <mxCell id="LLaQkQV6UhbVfh7tmjYq-2" value="ИС военного округа" style="text;html=1;align=center;verticalAlign=middle;resizable=0;points=[];autosize=1;strokeColor=none;fillColor=none;" parent="1" vertex="1">
          <mxGeometry x="200" y="120" width="130" height="30" as="geometry" />
        </mxCell>
        <mxCell id="LLaQkQV6UhbVfh7tmjYq-4" value="запрос военнослужащих" style="ellipse;whiteSpace=wrap;html=1;" parent="1" vertex="1">
          <mxGeometry x="230" y="240" width="120" height="40" as="geometry" />
        </mxCell>
        <mxCell id="LLaQkQV6UhbVfh7tmjYq-7" value="отменить запрос&lt;span style=&quot;color: rgba(0, 0, 0, 0); font-family: monospace; font-size: 0px; text-align: start; text-wrap-mode: nowrap;&quot;&gt;%3CmxGraphModel%3E%3Croot%3E%3CmxCell%20id%3D%220%22%2F%3E%3CmxCell%20id%3D%221%22%20parent%3D%220%22%2F%3E%3CmxCell%20id%3D%222%22%20value%3D%22%D0%BF%D0%BE%D0%B8%D1%81%D0%BA%D0%BE%D0%B2%D1%8B%D0%B9%20%D0%B7%D0%B0%D0%BF%D1%80%D0%BE%D1%81%22%20style%3D%22ellipse%3BwhiteSpace%3Dwrap%3Bhtml%3D1%3B%22%20vertex%3D%221%22%20parent%3D%221%22%3E%3CmxGeometry%20x%3D%22230%22%20y%3D%22240%22%20width%3D%22120%22%20height%3D%2240%22%20as%3D%22geometry%22%2F%3E%3C%2FmxCell%3E%3C%2Froot%3E%3C%2FmxGraphModel%3E&lt;/span&gt;" style="ellipse;whiteSpace=wrap;html=1;" parent="1" vertex="1">
          <mxGeometry x="410" y="190" width="120" height="40" as="geometry" />
        </mxCell>
        <mxCell id="LLaQkQV6UhbVfh7tmjYq-8" value="сообщить о пустой выдаче" style="ellipse;whiteSpace=wrap;html=1;" parent="1" vertex="1">
          <mxGeometry x="400" y="305" width="130" height="50" as="geometry" />
        </mxCell>
        <mxCell id="LLaQkQV6UhbVfh7tmjYq-29" value="" style="edgeStyle=orthogonalEdgeStyle;rounded=0;orthogonalLoop=1;jettySize=auto;html=1;entryX=0.5;entryY=0;entryDx=0;entryDy=0;" parent="1" source="LLaQkQV6UhbVfh7tmjYq-22" target="M2WfmLJmxqH0qcVzLnUi-5" edge="1">
          <mxGeometry relative="1" as="geometry">
            <mxPoint x="1060" y="290" as="targetPoint" />
          </mxGeometry>
        </mxCell>
        <mxCell id="LLaQkQV6UhbVfh7tmjYq-22" value="запрос военнослужащих (выбор части и специальности из списка)" style="rounded=1;whiteSpace=wrap;html=1;" parent="1" vertex="1">
          <mxGeometry x="1000" y="180" width="120" height="80" as="geometry" />
        </mxCell>
        <mxCell id="LLaQkQV6UhbVfh7tmjYq-35" value="" style="edgeStyle=orthogonalEdgeStyle;rounded=0;orthogonalLoop=1;jettySize=auto;html=1;" parent="1" source="LLaQkQV6UhbVfh7tmjYq-30" edge="1">
          <mxGeometry relative="1" as="geometry">
            <mxPoint x="1060" y="500" as="targetPoint" />
          </mxGeometry>
        </mxCell>
        <mxCell id="LLaQkQV6UhbVfh7tmjYq-30" value="проверка записи в бд" style="rounded=1;whiteSpace=wrap;html=1;" parent="1" vertex="1">
          <mxGeometry x="1000" y="400" width="120" height="60" as="geometry" />
        </mxCell>
        <mxCell id="LLaQkQV6UhbVfh7tmjYq-57" style="edgeStyle=orthogonalEdgeStyle;rounded=0;orthogonalLoop=1;jettySize=auto;html=1;entryX=0.5;entryY=0;entryDx=0;entryDy=0;" parent="1" source="LLaQkQV6UhbVfh7tmjYq-31" edge="1">
          <mxGeometry relative="1" as="geometry">
            <mxPoint x="1060" y="720" as="targetPoint" />
            <Array as="points">
              <mxPoint x="1520" y="318" />
              <mxPoint x="1520" y="700" />
              <mxPoint x="1060" y="700" />
            </Array>
          </mxGeometry>
        </mxCell>
        <mxCell id="LLaQkQV6UhbVfh7tmjYq-31" value="отменить запрос" style="rounded=1;whiteSpace=wrap;html=1;" parent="1" vertex="1">
          <mxGeometry x="1320" y="288" width="120" height="60" as="geometry" />
        </mxCell>
        <mxCell id="LLaQkQV6UhbVfh7tmjYq-56" style="edgeStyle=orthogonalEdgeStyle;rounded=0;orthogonalLoop=1;jettySize=auto;html=1;exitX=0.5;exitY=1;exitDx=0;exitDy=0;entryX=0.5;entryY=0;entryDx=0;entryDy=0;" parent="1" source="LLaQkQV6UhbVfh7tmjYq-36" edge="1">
          <mxGeometry relative="1" as="geometry">
            <mxPoint x="1060" y="720" as="targetPoint" />
          </mxGeometry>
        </mxCell>
        <mxCell id="LLaQkQV6UhbVfh7tmjYq-36" value="вывести перечень военнослужащих" style="rounded=1;whiteSpace=wrap;html=1;" parent="1" vertex="1">
          <mxGeometry x="1000" y="620" width="120" height="60" as="geometry" />
        </mxCell>
        <mxCell id="M2WfmLJmxqH0qcVzLnUi-12" style="edgeStyle=orthogonalEdgeStyle;rounded=0;orthogonalLoop=1;jettySize=auto;html=1;entryX=0.5;entryY=0;entryDx=0;entryDy=0;" edge="1" parent="1" source="LLaQkQV6UhbVfh7tmjYq-37" target="M2WfmLJmxqH0qcVzLnUi-3">
          <mxGeometry relative="1" as="geometry">
            <Array as="points">
              <mxPoint x="1280" y="700" />
              <mxPoint x="1061" y="700" />
            </Array>
          </mxGeometry>
        </mxCell>
        <mxCell id="LLaQkQV6UhbVfh7tmjYq-37" value="вывести сообщение о пустой выдаче" style="rounded=1;whiteSpace=wrap;html=1;" parent="1" vertex="1">
          <mxGeometry x="1220" y="521" width="120" height="60" as="geometry" />
        </mxCell>
        <mxCell id="LLaQkQV6UhbVfh7tmjYq-47" value="Extends" style="endArrow=block;endSize=16;endFill=0;html=1;rounded=0;entryX=1;entryY=1;entryDx=0;entryDy=0;exitX=0;exitY=0.5;exitDx=0;exitDy=0;" parent="1" source="LLaQkQV6UhbVfh7tmjYq-8" target="LLaQkQV6UhbVfh7tmjYq-4" edge="1">
          <mxGeometry width="160" relative="1" as="geometry">
            <mxPoint x="390" y="410" as="sourcePoint" />
            <mxPoint x="550" y="410" as="targetPoint" />
          </mxGeometry>
        </mxCell>
        <mxCell id="LLaQkQV6UhbVfh7tmjYq-48" value="Extends" style="endArrow=block;endSize=16;endFill=0;html=1;rounded=0;entryX=1;entryY=0;entryDx=0;entryDy=0;exitX=0;exitY=0.5;exitDx=0;exitDy=0;" parent="1" source="LLaQkQV6UhbVfh7tmjYq-7" target="LLaQkQV6UhbVfh7tmjYq-4" edge="1">
          <mxGeometry width="160" relative="1" as="geometry">
            <mxPoint x="410" y="340" as="sourcePoint" />
            <mxPoint x="342" y="284" as="targetPoint" />
          </mxGeometry>
        </mxCell>
        <mxCell id="M2WfmLJmxqH0qcVzLnUi-1" value="" style="ellipse;html=1;shape=startState;fillColor=#000000;strokeColor=#ff0000;" vertex="1" parent="1">
          <mxGeometry x="1045" y="70" width="30" height="30" as="geometry" />
        </mxCell>
        <mxCell id="M2WfmLJmxqH0qcVzLnUi-2" value="" style="edgeStyle=orthogonalEdgeStyle;html=1;verticalAlign=bottom;endArrow=open;endSize=8;strokeColor=#ff0000;rounded=0;" edge="1" source="M2WfmLJmxqH0qcVzLnUi-1" parent="1">
          <mxGeometry relative="1" as="geometry">
            <mxPoint x="1060" y="180" as="targetPoint" />
            <Array as="points">
              <mxPoint x="1060" y="130" />
              <mxPoint x="1060" y="130" />
            </Array>
          </mxGeometry>
        </mxCell>
        <mxCell id="M2WfmLJmxqH0qcVzLnUi-3" value="" style="ellipse;html=1;shape=endState;fillColor=#000000;strokeColor=#ff0000;" vertex="1" parent="1">
          <mxGeometry x="1046" y="720" width="30" height="30" as="geometry" />
        </mxCell>
        <mxCell id="M2WfmLJmxqH0qcVzLnUi-5" value="Нажали &quot;отмена&quot;?" style="rhombus;whiteSpace=wrap;html=1;fontColor=#000000;fillColor=#ffffc0;strokeColor=#ff0000;" vertex="1" parent="1">
          <mxGeometry x="1000" y="288" width="120" height="59" as="geometry" />
        </mxCell>
        <mxCell id="M2WfmLJmxqH0qcVzLnUi-6" value="&lt;div&gt;да, пользователь решил&amp;nbsp;&lt;/div&gt;&lt;div&gt;отменить запрос&lt;/div&gt;" style="edgeStyle=orthogonalEdgeStyle;html=1;align=left;verticalAlign=bottom;endArrow=open;endSize=8;strokeColor=#ff0000;rounded=0;entryX=0;entryY=0.5;entryDx=0;entryDy=0;" edge="1" source="M2WfmLJmxqH0qcVzLnUi-5" parent="1" target="LLaQkQV6UhbVfh7tmjYq-31">
          <mxGeometry x="-1" relative="1" as="geometry">
            <mxPoint x="1030" y="325" as="targetPoint" />
          </mxGeometry>
        </mxCell>
        <mxCell id="M2WfmLJmxqH0qcVzLnUi-7" value="нет" style="edgeStyle=orthogonalEdgeStyle;html=1;align=left;verticalAlign=top;endArrow=open;endSize=8;strokeColor=#ff0000;rounded=0;entryX=0.5;entryY=0;entryDx=0;entryDy=0;" edge="1" source="M2WfmLJmxqH0qcVzLnUi-5" parent="1" target="LLaQkQV6UhbVfh7tmjYq-30">
          <mxGeometry x="-1" relative="1" as="geometry">
            <mxPoint x="890" y="405" as="targetPoint" />
          </mxGeometry>
        </mxCell>
        <mxCell id="M2WfmLJmxqH0qcVzLnUi-9" value="В бд нашлась информация?" style="rhombus;whiteSpace=wrap;html=1;fontColor=#000000;fillColor=#ffffc0;strokeColor=#ff0000;" vertex="1" parent="1">
          <mxGeometry x="1000" y="500" width="120" height="75" as="geometry" />
        </mxCell>
        <mxCell id="M2WfmLJmxqH0qcVzLnUi-10" value="&lt;div&gt;нет записей,&amp;nbsp;&lt;/div&gt;&lt;div&gt;подходящих запросу&amp;nbsp;&lt;/div&gt;" style="edgeStyle=orthogonalEdgeStyle;html=1;align=left;verticalAlign=bottom;endArrow=open;endSize=8;strokeColor=#ff0000;rounded=0;entryX=0;entryY=0.5;entryDx=0;entryDy=0;" edge="1" source="M2WfmLJmxqH0qcVzLnUi-9" parent="1" target="LLaQkQV6UhbVfh7tmjYq-37">
          <mxGeometry x="-1" relative="1" as="geometry">
            <mxPoint x="970" y="505" as="targetPoint" />
          </mxGeometry>
        </mxCell>
        <mxCell id="M2WfmLJmxqH0qcVzLnUi-11" value="&lt;div&gt;есть записи,&amp;nbsp;&lt;/div&gt;&lt;div&gt;подходящие запросу&amp;nbsp;&lt;/div&gt;" style="edgeStyle=orthogonalEdgeStyle;html=1;align=left;verticalAlign=top;endArrow=open;endSize=8;strokeColor=#ff0000;rounded=0;entryX=0.5;entryY=0;entryDx=0;entryDy=0;" edge="1" source="M2WfmLJmxqH0qcVzLnUi-9" parent="1" target="LLaQkQV6UhbVfh7tmjYq-36">
          <mxGeometry x="-1" relative="1" as="geometry">
            <mxPoint x="830" y="585" as="targetPoint" />
          </mxGeometry>
        </mxCell>
      </root>
    </mxGraphModel>
  </diagram>
</mxfile>
